<svg width="213" height="213" viewBox="0 0 213 213" fill="none" xmlns="http://www.w3.org/2000/svg">
<path d="M156.327 137.705C169.218 120.115 174.991 98.3067 172.493 76.6428C169.994 54.9788 159.408 35.057 142.852 20.8631C126.296 6.66924 104.991 -0.75005 83.1996 0.0896112C61.4082 0.929272 40.7373 9.96596 25.3226 25.3918C9.90782 40.8176 0.885925 61.4948 0.061857 83.2868C-0.762211 105.079 6.67232 126.378 20.8781 142.924C35.0838 159.47 55.0131 170.042 76.6789 172.525C98.3446 175.008 120.149 169.219 137.73 156.316H137.716C138.116 156.849 138.542 157.354 139.021 157.847L190.274 209.1C192.77 211.598 196.157 213.002 199.688 213.003C203.219 213.005 206.607 211.603 209.105 209.107C211.603 206.611 213.007 203.224 213.008 199.693C213.009 196.162 211.608 192.774 209.111 190.276L157.858 139.023C157.382 138.541 156.871 138.096 156.327 137.692V137.705ZM159.762 86.532C159.762 96.1472 157.868 105.668 154.189 114.552C150.509 123.435 145.116 131.506 138.317 138.305C131.518 145.104 123.446 150.498 114.563 154.177C105.679 157.857 96.1584 159.751 86.5432 159.751C76.928 159.751 67.4069 157.857 58.5236 154.177C49.6403 150.498 41.5687 145.104 34.7697 138.305C27.9707 131.506 22.5775 123.435 18.8979 114.552C15.2183 105.668 13.3245 96.1472 13.3245 86.532C13.3245 67.1132 21.0386 48.4897 34.7697 34.7585C48.5009 21.0273 67.1244 13.3132 86.5432 13.3132C105.962 13.3132 124.585 21.0273 138.317 34.7585C152.048 48.4897 159.762 67.1132 159.762 86.532Z" fill="black"/>
</svg>
