<svg width="362" height="362" viewBox="0 0 362 362" fill="none" xmlns="http://www.w3.org/2000/svg">
<path d="M45.25 90.4994C45.25 86.499 46.8391 82.6625 49.6678 79.8338C52.4965 77.0052 56.333 75.416 60.3333 75.416H301.667C305.667 75.416 309.504 77.0052 312.332 79.8338C315.161 82.6625 316.75 86.499 316.75 90.4994C316.75 94.4997 315.161 98.3362 312.332 101.165C309.504 103.994 305.667 105.583 301.667 105.583H60.3333C56.333 105.583 52.4965 103.994 49.6678 101.165C46.8391 98.3362 45.25 94.4997 45.25 90.4994ZM45.25 180.999C45.25 176.999 46.8391 173.163 49.6678 170.334C52.4965 167.505 56.333 165.916 60.3333 165.916H301.667C305.667 165.916 309.504 167.505 312.332 170.334C315.161 173.163 316.75 176.999 316.75 180.999C316.75 185 315.161 188.836 312.332 191.665C309.504 194.494 305.667 196.083 301.667 196.083H60.3333C56.333 196.083 52.4965 194.494 49.6678 191.665C46.8391 188.836 45.25 185 45.25 180.999ZM45.25 271.499C45.25 267.499 46.8391 263.663 49.6678 260.834C52.4965 258.005 56.333 256.416 60.3333 256.416H301.667C305.667 256.416 309.504 258.005 312.332 260.834C315.161 263.663 316.75 267.499 316.75 271.499C316.75 275.5 315.161 279.336 312.332 282.165C309.504 284.994 305.667 286.583 301.667 286.583H60.3333C56.333 286.583 52.4965 284.994 49.6678 282.165C46.8391 279.336 45.25 275.5 45.25 271.499Z" fill="white"/>
</svg>
