<svg width="60" height="60" viewBox="0 0 60 60" fill="none" xmlns="http://www.w3.org/2000/svg">
<path d="M15.5624 12.028C15.0909 11.5726 14.4594 11.3206 13.8039 11.3263C13.1484 11.332 12.5214 11.5949 12.0579 12.0584C11.5944 12.5219 11.3314 13.149 11.3258 13.8044C11.3201 14.4599 11.572 15.0914 12.0274 15.563L26.4649 30.0005L12.0249 44.438C11.7862 44.6686 11.5957 44.9444 11.4647 45.2494C11.3337 45.5545 11.2647 45.8825 11.2618 46.2145C11.2589 46.5464 11.3222 46.8756 11.4479 47.1828C11.5736 47.4901 11.7592 47.7692 11.994 48.0039C12.2287 48.2387 12.5078 48.4243 12.8151 48.55C13.1223 48.6757 13.4515 48.739 13.7834 48.7361C14.1154 48.7332 14.4434 48.6642 14.7485 48.5332C15.0535 48.4022 15.3293 48.2117 15.5599 47.973L29.9999 33.5355L44.4374 47.973C44.9089 48.4283 45.5404 48.6803 46.1959 48.6746C46.8514 48.6689 47.4785 48.406 47.942 47.9425C48.4055 47.479 48.6684 46.852 48.6741 46.1965C48.6798 45.541 48.4278 44.9095 47.9724 44.438L33.5349 30.0005L47.9724 15.563C48.4278 15.0914 48.6798 14.4599 48.6741 13.8044C48.6684 13.149 48.4055 12.5219 47.942 12.0584C47.4785 11.5949 46.8514 11.332 46.1959 11.3263C45.5404 11.3206 44.9089 11.5726 44.4374 12.028L29.9999 26.4655L15.5624 12.0255V12.028Z" fill="white"/>
</svg>
