<svg width="45" height="45" viewBox="0 0 45 45" fill="none" xmlns="http://www.w3.org/2000/svg">
<path d="M25.8896 11.856C25.8902 12.2626 25.9843 12.6637 26.1647 13.0281C26.345 13.3926 26.6068 13.7107 26.9298 13.9578C27.2527 14.2049 27.6282 14.3743 28.0271 14.4531C28.4261 14.5319 28.8378 14.5178 29.2304 14.4121C29.623 14.3063 29.9861 14.1116 30.2914 13.8431C30.5968 13.5745 30.8363 13.2394 30.9914 12.8635C31.1465 12.4876 31.2131 12.081 31.1859 11.6753C31.1588 11.2696 31.0387 10.8755 30.8349 10.5236L32.6059 8.7526H44.9924V16.6542H36.584C36.4186 16.0322 36.0326 15.4915 35.498 15.1332C34.9633 14.7748 34.3166 14.6232 33.6784 14.7066C33.0402 14.79 32.4541 15.1027 32.0295 15.5864C31.6049 16.0701 31.3708 16.6917 31.3708 17.3354C31.3708 17.979 31.6049 18.6006 32.0295 19.0843C32.4541 19.568 33.0402 19.8807 33.6784 19.9641C34.3166 20.0475 34.9633 19.8959 35.498 19.5375C36.0326 19.1792 36.4186 18.6385 36.584 18.0165H44.9896V44.9909H38.4695V32.3048C38.4695 32.124 38.398 31.9507 38.2706 31.8225L36.3115 29.8689C36.5479 29.4657 36.6721 29.0066 36.6712 28.5393C36.6707 27.9562 36.4778 27.3896 36.1225 26.9274C35.7672 26.4651 35.2692 26.133 34.7059 25.9827C34.1426 25.8323 33.5454 25.872 33.0069 26.0956C32.4685 26.3193 32.0189 26.7143 31.7279 27.2195C31.4369 27.7248 31.3207 28.3119 31.3974 28.8899C31.4741 29.4679 31.7394 30.0044 32.1521 30.4162C32.5649 30.828 33.102 31.0921 33.6801 31.1676C34.2582 31.243 34.8451 31.1256 35.3497 30.8334L37.1017 32.5854V44.9909H29.2273V36.5825C29.8494 36.4172 30.39 36.0311 30.7483 35.4965C31.1067 34.9619 31.2583 34.3151 31.1749 33.6769C31.0916 33.0387 30.7788 32.4527 30.2951 32.028C29.8114 31.6034 29.1898 31.3693 28.5462 31.3693C27.9025 31.3693 27.2809 31.6034 26.7972 32.028C26.3135 32.4527 26.0008 33.0387 25.9174 33.6769C25.834 34.3151 25.9856 34.9619 26.344 35.4965C26.7024 36.0311 27.243 36.4172 27.865 36.5825V44.9882H0.890625V38.4898H13.5659C13.7466 38.4898 13.92 38.4183 14.0481 38.2909L16.0099 36.3291C16.5608 36.6565 17.2119 36.7723 17.8419 36.655C18.4719 36.5377 19.0378 36.1953 19.4339 35.6916C19.8301 35.1879 20.0295 34.5573 19.9951 33.9174C19.9606 33.2775 19.6946 32.672 19.2466 32.2138C18.7987 31.7555 18.1993 31.4759 17.5604 31.4269C16.9214 31.378 16.2865 31.5631 15.7739 31.9477C15.2614 32.3324 14.9062 32.8903 14.7747 33.5175C14.6431 34.1446 14.7442 34.7982 15.059 35.3564L13.2852 37.1275H0.890625V29.2259H9.29628C9.46165 29.8479 9.84766 30.3885 10.3823 30.7469C10.9169 31.1052 11.5637 31.2569 12.2019 31.1735C12.8401 31.0901 13.4261 30.7774 13.8508 30.2937C14.2754 29.81 14.5095 29.1883 14.5095 28.5447C14.5095 27.9011 14.2754 27.2794 13.8508 26.7957C13.4261 26.312 12.8401 25.9993 12.2019 25.9159C11.5637 25.8325 10.9169 25.9842 10.3823 26.3425C9.84766 26.7009 9.46165 27.2415 9.29628 27.8635H0.890625V0.88916H7.3999V13.5644C7.40009 13.6541 7.41801 13.7429 7.45261 13.8256C7.48721 13.9084 7.53781 13.9835 7.60152 14.0467L9.56329 16.0112C9.23698 16.5654 9.1235 17.2194 9.24404 17.8512C9.36459 18.483 9.71092 19.0493 10.2184 19.4445C10.7259 19.8396 11.3598 20.0366 12.0018 19.9986C12.6439 19.9607 13.2502 19.6904 13.7075 19.2382C14.1649 18.786 14.4421 18.1828 14.4873 17.5412C14.5326 16.8996 14.3428 16.2635 13.9535 15.7516C13.5641 15.2397 13.0018 14.8869 12.3714 14.7592C11.741 14.6315 11.0857 14.7375 10.5278 15.0575L8.76224 13.2946V0.88916H16.6638V9.29481C16.0411 9.4602 15.4997 9.84651 15.1409 10.3817C14.782 10.9168 14.6301 11.5643 14.7135 12.2032C14.7969 12.8422 15.1099 13.4289 15.5941 13.854C16.0783 14.2792 16.7006 14.5136 17.345 14.5136C17.9893 14.5136 18.6117 14.2792 19.0959 13.854C19.5801 13.4289 19.8931 12.8422 19.9765 12.2032C20.0599 11.5643 19.908 10.9168 19.5491 10.3817C19.1903 9.84651 18.6489 9.4602 18.0262 9.29481V0.88916H45.0005V7.39026H32.3253C32.1447 7.39082 31.9715 7.46224 31.843 7.58916L29.8704 9.56183C29.4674 9.3282 29.0099 9.20488 28.5441 9.20429C28.0783 9.20369 27.6205 9.32584 27.2169 9.55844C26.8133 9.79104 26.4782 10.1259 26.2451 10.5292C26.0121 10.9326 25.8895 11.3902 25.8896 11.856Z" fill="white"/>
</svg>
