<svg width="300" height="300" viewBox="0 0 300 300" fill="none" xmlns="http://www.w3.org/2000/svg">
<path d="M150 9.375C72.3187 9.375 9.375 72.3187 9.375 150C9.375 227.681 72.3187 290.625 150 290.625C227.681 290.625 290.625 227.681 290.625 150C290.625 72.3187 227.681 9.375 150 9.375ZM150 278.906C78.9188 278.906 21.0938 221.081 21.0938 150C21.0938 78.9188 78.9188 21.0938 150 21.0938C221.077 21.0938 278.906 78.9188 278.906 150C278.906 156.361 278.423 162.609 277.528 168.731C273.6 142.2 250.856 118.266 250.856 118.266C250.856 118.266 223.537 146.92 223.537 176.273C223.537 206.053 253.505 213.755 269.044 199.416C249.614 246.037 203.583 278.906 150 278.906Z" fill="black"/>
<path d="M180.459 187.5C193.403 187.5 203.896 177.007 203.896 164.062C203.896 151.118 193.403 140.625 180.459 140.625C167.515 140.625 157.021 151.118 157.021 164.062C157.021 177.007 167.515 187.5 180.459 187.5Z" fill="black"/>
<path d="M72.6465 187.5C85.5907 187.5 96.084 177.007 96.084 164.062C96.084 151.118 85.5907 140.625 72.6465 140.625C59.7023 140.625 49.209 151.118 49.209 164.062C49.209 177.007 59.7023 187.5 72.6465 187.5Z" fill="black"/>
<path d="M103.087 101.156C105.623 98.9573 98.5351 91.4948 96.4586 93.3089C88.9638 99.6354 80.1662 104.231 70.6924 106.77C61.2185 109.308 51.3015 109.727 41.6476 107.995C38.9383 107.465 36.5476 117.468 39.8429 118.101C50.9821 120.101 62.4252 119.619 73.3569 116.69C84.2885 113.761 94.4396 108.457 103.087 101.156" fill="black"/>
<path d="M211.471 107.282C191.933 110.789 171.838 105.407 156.669 92.5964C154.593 90.773 147.505 98.2448 150.05 100.443C158.698 107.744 168.849 113.048 179.78 115.977C190.712 118.906 202.155 119.388 213.294 117.389C216.59 116.756 214.19 106.748 211.471 107.282" fill="black"/>
<path d="M178.474 221.857C151.446 214.596 121.994 219.85 99.1146 235.985C93.4662 240.058 104.051 254.861 109.671 250.76C124.779 240.129 148.821 232.788 173.702 239.36C180.372 241.127 185.59 223.854 178.474 221.857Z" fill="black"/>
</svg>
