<svg width="302" height="302" viewBox="0 0 302 302" fill="none" xmlns="http://www.w3.org/2000/svg">
<path d="M151 16.7773C124.453 16.7773 98.5025 24.6493 76.4298 39.3979C54.357 54.1464 37.1534 75.109 26.9945 99.6349C16.8355 124.161 14.1775 151.148 19.3564 177.185C24.5354 203.222 37.3189 227.138 56.0902 245.909C74.8615 264.68 98.7776 277.464 124.814 282.643C150.851 287.822 177.838 285.164 202.364 275.005C226.89 264.846 247.853 247.642 262.601 225.569C277.35 203.497 285.222 177.546 285.222 151C285.222 115.402 271.081 81.2617 245.909 56.0901C220.738 30.9186 186.598 16.7773 151 16.7773V16.7773ZM151 268.444C127.771 268.444 105.065 261.556 85.751 248.651C66.4374 235.746 51.3842 217.404 42.4951 195.944C33.606 174.483 31.2802 150.869 35.8118 128.087C40.3435 105.305 51.529 84.3787 67.9539 67.9538C84.3788 51.5289 105.305 40.3434 128.087 35.8118C150.869 31.2802 174.484 33.606 195.944 42.4951C217.404 51.3841 235.746 66.4373 248.651 85.7509C261.556 105.065 268.444 127.771 268.444 151C268.444 182.148 256.071 212.02 234.045 234.045C212.02 256.07 182.148 268.444 151 268.444Z" fill="#FF9243"/>
<path d="M211.059 134.897C219.398 134.897 226.159 128.137 226.159 119.797C226.159 111.458 219.398 104.697 211.059 104.697C202.719 104.697 195.959 111.458 195.959 119.797C195.959 128.137 202.719 134.897 211.059 134.897Z" fill="#FF9243"/>
<path d="M95.7133 134.897C104.053 134.897 110.813 128.137 110.813 119.797C110.813 111.458 104.053 104.697 95.7133 104.697C87.3738 104.697 80.6133 111.458 80.6133 119.797C80.6133 128.137 87.3738 134.897 95.7133 134.897Z" fill="#FF9243"/>
<path d="M152.342 167.777C140.307 167.779 128.447 170.658 117.751 176.174C107.054 181.69 97.8317 189.684 90.8515 199.487C89.561 201.301 89.0438 203.552 89.4135 205.747C89.7832 207.942 91.0096 209.899 92.8229 211.19C94.6361 212.48 96.8878 212.998 99.0824 212.628C101.277 212.258 103.235 211.032 104.525 209.218C109.889 201.684 116.957 195.524 125.152 191.239C133.348 186.953 142.44 184.664 151.687 184.558C160.935 184.452 170.077 186.531 178.369 190.627C186.661 194.723 193.868 200.719 199.404 208.128C200.739 209.908 202.726 211.084 204.928 211.399C207.131 211.714 209.368 211.141 211.148 209.806C212.928 208.471 214.105 206.483 214.419 204.281C214.734 202.078 214.161 199.841 212.826 198.061C205.794 188.658 196.665 181.024 186.165 175.767C175.665 170.51 164.084 167.774 152.342 167.777V167.777Z" fill="#FF9243"/>
</svg>
