<svg width="522" height="522" viewBox="0 0 522 522" fill="none" xmlns="http://www.w3.org/2000/svg">
<path d="M261 0C116.85 0 0 116.85 0 261C0 405.15 116.85 522 261 522C405.15 522 522 405.15 522 261C522 116.85 405.15 0 261 0ZM343.998 395.467C343.024 397.906 341.539 400.107 339.644 401.924C337.749 403.741 335.486 405.132 333.009 406.002C330.532 406.872 327.897 407.202 325.281 406.97C322.666 406.737 320.131 405.948 317.846 404.654L246.984 349.583L201.518 391.552C200.463 392.331 199.229 392.833 197.929 393.011C196.629 393.189 195.306 393.037 194.08 392.57L202.797 314.557L203.058 314.792L203.241 313.252C203.241 313.252 330.739 197.159 335.933 192.226C341.205 187.294 339.457 186.224 339.457 186.224C339.77 180.221 330.035 186.224 330.035 186.224L161.089 294.904L90.7497 270.944C90.7497 270.944 79.9443 267.055 78.9264 258.547C77.8563 250.09 91.089 245.497 91.089 245.497L370.803 134.363C370.803 134.363 393.797 124.132 393.797 141.097L343.998 395.467V395.467Z" fill="white"/>
</svg>
