<svg width="522" height="522" viewBox="0 0 522 522" fill="none" xmlns="http://www.w3.org/2000/svg">
<path d="M341.205 0H181.056C34.7913 0 0 34.7913 0 180.795V340.944C0 487.183 34.5303 522 180.795 522H340.944C487.183 522 522 487.47 522 341.205V181.056C522 34.7913 487.47 0 341.205 0ZM421.411 372.447H383.331C368.924 372.447 364.591 360.78 338.752 334.941C316.202 313.2 306.675 310.486 300.959 310.486C293.077 310.486 290.911 312.652 290.911 323.536V357.779C290.911 367.044 287.909 372.473 263.714 372.473C240.233 370.895 217.463 363.761 197.279 351.659C177.096 339.557 160.076 322.833 147.622 302.864C118.055 266.063 97.482 222.871 87.5394 176.723C87.5394 171.007 89.7057 165.839 100.589 165.839H138.643C148.431 165.839 151.954 170.198 155.791 180.247C174.27 234.639 205.799 281.932 218.588 281.932C223.494 281.932 225.635 279.766 225.635 267.525V211.514C224.016 185.963 210.444 183.796 210.444 174.557C210.619 172.12 211.735 169.847 213.558 168.219C215.38 166.592 217.765 165.738 220.206 165.839H280.027C288.196 165.839 290.911 169.911 290.911 179.699V255.284C290.911 263.453 294.434 266.168 296.888 266.168C301.794 266.168 305.579 263.453 314.557 254.475C333.841 230.957 349.597 204.756 361.328 176.697C362.528 173.327 364.796 170.441 367.789 168.481C370.781 166.52 374.333 165.593 377.902 165.839H415.982C427.388 165.839 429.815 171.555 427.388 179.699C413.541 210.717 396.409 240.16 376.284 267.525C372.186 273.789 370.542 277.052 376.284 284.386C380.094 290.102 393.405 301.246 402.384 311.843C415.434 324.867 426.265 339.926 434.461 356.422C437.723 367.018 432.268 372.473 421.411 372.473V372.447Z" fill="black"/>
</svg>
