<svg width="517" height="207" viewBox="0 0 517 207" fill="none" xmlns="http://www.w3.org/2000/svg">
<g clip-path="url(#clip0_909_10)">
<path d="M69.4715 34.2453L69.549 33.883L69.7558 32.3564L60.1913 32.3046C51.5574 32.2529 48.9078 32.3046 48.6752 32.5246C48.5588 32.6281 45.5732 43.9743 40.261 64.519C37.7277 74.3256 35.5951 82.1528 35.5175 81.9199C35.44 81.6871 32.4155 70.4961 28.7707 57.0541C26.5884 48.8354 24.3308 40.637 21.998 32.4599C21.8687 32.3305 10.2879 32.2788 0.904369 32.3564C-0.452756 32.3693 -1.21533 29.7042 13.028 75.0372C14.9926 81.3119 17.9524 90.1999 19.581 94.7798C21.468 100.058 22.8122 104.147 23.7299 107.549C25.3585 114.031 25.4102 118.093 25.0612 122.841C24.6476 128.314 24.5959 166.997 24.9966 167.644C25.3068 168.135 43.4147 168.368 45.1337 167.903C45.4051 167.825 45.5861 167.566 45.7153 166.104C46.1419 164.849 46.1806 159.843 46.1806 139.065V112.53L47.3439 108.869C48.1065 106.475 50.0064 100.175 51.5833 94.8704L55.8098 80.7685C62.6471 58.4643 69.1613 36.5352 69.3422 35.2803L69.4844 34.2582L69.4715 34.2453Z" fill="black"/>
<path d="M170.881 66.4338V67.8181H170.661L170.545 106.023L170.429 143.063L167.469 146.077C164.147 149.454 161.498 150.747 159.094 150.139C156.47 149.48 156.547 150.502 156.328 106.721L156.121 66.4209H137.069V67.8052H136.85V111.534C136.85 158.381 136.85 158.355 139.228 163.051C141.115 166.803 143.881 168.627 148.598 169.248C154.815 170.076 161.523 167.256 167.74 161.201L170.442 158.575V163.116C170.442 167.036 170.558 167.683 171.269 167.877C172.432 168.2 186.856 168.226 188.407 167.903L189.7 167.631V166.285L189.92 166.247V66.1621L170.894 66.4209L170.881 66.4338Z" fill="black"/>
<path d="M122.569 86.1772C120.759 78.4276 117.386 73.2138 111.815 69.6172C103.078 63.9635 93.0867 63.3554 83.8324 67.9353C77.0855 71.2732 72.7298 76.8104 70.4938 84.9352C70.2067 85.9122 70.0035 86.9121 69.8863 87.9237C69.3176 90.7959 69.253 95.0652 69.0979 115.002C68.8652 145.716 69.2271 149.364 73.0659 156.337C76.84 163.181 84.6596 168.201 93.1772 169.236C95.7363 169.546 100.932 169.068 103.931 168.227C110.716 166.338 117.231 160.969 120.113 154.875C121.382 152.435 122.209 149.79 122.556 147.061C123.396 142.494 123.46 135.094 123.46 116.257C123.46 92.2319 123.383 89.6056 122.582 86.1642L122.569 86.1772ZM100.842 148.782C98.877 150.067 96.4843 150.523 94.1853 150.05C92.4404 149.674 90.0752 146.932 89.3514 144.435C88.4466 141.317 88.382 97.9374 89.1575 89.4374C90.45 85.181 94.0431 82.9557 97.9723 84.0166C101.036 84.8446 102.599 86.7594 103.491 90.7829C104.15 93.7715 104.228 97.4845 104.086 119.336C103.995 133.826 103.944 140.916 103.465 144.719C102.987 147.113 102.186 147.76 100.842 148.795V148.782Z" fill="black"/>
<path d="M464.576 107.977H473.779L473.636 99.632C473.494 91.973 473.378 91.1062 472.357 89.0232C470.741 85.75 468.363 84.2881 464.589 84.2881C460.052 84.2881 457.183 86.4875 455.826 90.9897C455.244 92.9045 454.637 106.088 455.076 107.226C455.322 107.86 456.64 107.977 464.576 107.977V107.977Z" fill="black"/>
<path d="M403.052 88.9973C402.505 87.847 401.624 86.8886 400.524 86.2471C399.424 85.6055 398.157 85.3105 396.887 85.4006C394.482 85.5846 392.191 86.5011 390.321 88.027L388.68 89.2819V149.234L390.321 150.489C394.044 153.335 398.128 153.931 400.946 152.042C402.113 151.217 402.962 150.016 403.35 148.639C404.086 146.517 404.151 143.788 404.06 118.559C403.957 92.2704 403.905 90.718 403.052 88.9973V88.9973Z" fill="black"/>
<path d="M517.181 61.9839C515.345 39.9772 513.885 32.8357 509.361 23.663C503.351 11.5147 494.678 5.1106 482.322 3.70041C472.771 2.61366 436.813 1.0741 403.557 0.336662C345.963 -0.944151 251.275 1.52691 239.177 4.61897C233.778 5.94534 228.871 8.79167 225.037 12.8213C217.398 20.4286 212.836 31.3479 211.013 46.4589C206.839 80.9502 206.748 122.609 210.768 158.355C212.5 173.725 216.067 183.713 222.762 191.941C226.937 197.077 234.149 201.437 240.586 202.744C245.11 203.662 267.728 204.93 300.687 206.108C305.599 206.289 318.588 206.586 329.574 206.78C352.452 207.181 394.523 206.949 418.576 206.276C434.758 205.823 464.253 204.62 469.772 204.193C471.323 204.076 474.916 203.844 477.76 203.688C487.311 203.145 493.386 201.153 499.086 196.663C506.466 190.854 512.179 180.129 514.596 167.541C516.884 155.638 518.409 134.434 518.719 110.357C518.977 90.2394 518.628 79.3977 517.181 61.958V61.9839ZM287.84 54.0144L277.138 54.1437L276.672 168.382L267.392 168.498C260.219 168.602 258.035 168.485 257.867 168.033C257.737 167.709 257.595 141.951 257.53 110.797L257.414 54.1437L236.514 53.885V36.0312L298.283 36.277L298.542 53.872L287.84 54.0014V54.0144ZM353.46 119.491V168.615H336.554V163.44C336.554 159.546 336.412 158.265 335.946 158.265C335.61 158.265 334.085 159.546 332.547 161.111C329.2 164.514 325.245 167.243 321.858 168.511C314.853 171.138 308.209 169.598 305.379 164.721C302.781 160.257 302.742 159.248 302.742 112.906V70.3415H319.635L319.764 110.422C319.894 149.804 319.907 150.528 320.85 152.132C322.104 154.254 324.004 154.836 327.028 153.995C328.812 153.504 330.027 152.637 332.909 149.765L336.554 146.142V70.3415H353.46V119.465V119.491ZM419.403 161.603C417.917 164.928 414.595 168.175 411.868 168.977C404.772 171.073 399.072 169.365 392.493 163.168C390.451 161.24 388.551 159.688 388.267 159.688C387.918 159.688 387.737 161.189 387.737 164.151V168.615H370.831V36.0312H387.737V57.6627C387.737 69.5523 387.892 79.2942 388.086 79.2942C388.28 79.2942 390.063 77.7159 392.054 75.8011C396.629 71.3894 400.442 69.4488 405.289 69.0865C413.936 68.4267 419.093 72.8902 421.445 83.059C422.182 86.2287 422.247 89.8512 422.247 119.258C422.247 155.069 422.247 155.224 419.39 161.603H419.403ZM490.943 141.938C490.855 145.094 490.523 148.239 489.948 151.343C487.596 160.063 481.34 166.247 472.292 168.783C460.117 172.198 446.701 166.609 441.35 155.884C438.351 149.868 438.235 148.665 438.235 119.258C438.235 95.285 438.325 92.3352 439.088 89.062C441.259 79.8117 446.636 73.8217 455.748 70.4967C458.385 69.5394 461.138 69.0348 463.891 68.983C473.727 68.776 483.472 74.0675 487.57 82.6839C490.323 88.4928 490.672 90.9897 490.943 107.369L491.189 122.066L455.141 122.311L455.012 132.183C454.818 146.116 455.761 150.399 459.522 152.922C462.676 155.056 467.536 154.888 470.173 152.572C472.654 150.399 473.352 148.057 473.598 141.226L473.817 135.236H491.227L490.943 141.938V141.938Z" fill="black"/>
</g>
<defs>
<clipPath id="clip0_909_10">
<rect width="517" height="207" fill="white"/>
</clipPath>
</defs>
</svg>
