<svg width="518" height="208" viewBox="0 0 518 208" fill="none" xmlns="http://www.w3.org/2000/svg">
<g clip-path="url(#clip0_725_19)">
<path d="M69.6132 34.4159L69.6909 34.0519L69.8981 32.5179L60.3151 32.4659C51.6645 32.4139 49.0098 32.4659 48.7767 32.6869C48.6601 32.7909 45.6687 44.1919 40.3462 64.8359C37.8081 74.6899 35.6713 82.5549 35.5936 82.3209C35.5159 82.0869 32.4856 70.8419 28.8337 57.3349C26.6472 49.0765 24.3852 40.8385 22.0479 32.6219C21.9184 32.4919 10.3152 32.4399 0.913508 32.5179C-0.446242 32.5309 -1.21029 29.8529 13.0606 75.4049C15.029 81.7099 17.9946 90.6409 19.6263 95.2429C21.517 100.547 22.8638 104.655 23.7832 108.074C25.4149 114.587 25.4667 118.669 25.1171 123.44C24.7027 128.939 24.6509 167.809 25.0523 168.459C25.3631 168.953 43.5061 169.187 45.2284 168.719C45.5003 168.641 45.6816 168.381 45.8111 166.912C46.2385 165.651 46.2773 160.62 46.2773 139.742V113.079L47.4428 109.4C48.2069 106.995 50.1105 100.664 51.6904 95.3339L55.9251 81.1639C62.7756 58.7519 69.3024 36.7169 69.4837 35.4559L69.6262 34.4289L69.6132 34.4159Z" fill="white"/>
<path d="M171.211 66.7457V68.1367H170.99L170.874 106.526L170.757 143.745L167.792 146.774C164.464 150.167 161.809 151.467 159.4 150.856C156.771 150.193 156.849 151.22 156.629 107.228L156.422 66.7327H137.333V68.1237H137.113V112.064C137.113 159.137 137.113 159.111 139.496 163.83C141.387 167.6 144.158 169.433 148.885 170.057C155.114 170.889 161.835 168.055 168.064 161.971L170.77 159.332V163.895C170.77 167.834 170.887 168.484 171.599 168.679C172.765 169.004 187.217 169.03 188.771 168.705L190.066 168.432V167.08L190.286 167.041V66.4727L171.224 66.7327L171.211 66.7457Z" fill="white"/>
<path d="M122.805 86.5944C120.992 78.8074 117.612 73.5684 112.031 69.9545C103.276 64.2734 93.266 63.6624 83.9938 68.2644C77.2339 71.6184 72.8697 77.1824 70.6294 85.3465C70.3417 86.3282 70.1381 87.3329 70.0208 88.3494C69.451 91.2354 69.3862 95.5254 69.2308 115.558C68.9977 146.42 69.3603 150.086 73.2064 157.093C76.9878 163.97 84.8226 169.014 93.3567 170.054C95.9208 170.366 101.127 169.885 104.131 169.04C110.93 167.142 117.457 161.747 120.344 155.624C121.616 153.173 122.445 150.514 122.792 147.772C123.634 143.183 123.699 135.747 123.699 116.819C123.699 92.6784 123.621 90.0394 122.818 86.5814L122.805 86.5944ZM101.036 149.501C99.0675 150.793 96.6702 151.251 94.3668 150.775C92.6185 150.398 90.2487 147.642 89.5235 145.133C88.617 142 88.5522 98.4115 89.3292 89.8705C90.6242 85.5935 94.2243 83.3574 98.1611 84.4234C101.23 85.2554 102.797 87.1795 103.691 91.2225C104.351 94.2255 104.429 97.9565 104.286 119.913C104.196 134.473 104.144 141.597 103.665 145.419C103.186 147.824 102.383 148.474 101.036 149.514V149.501Z" fill="white"/>
<path d="M465.474 108.504H474.694L474.552 100.119C474.409 92.4232 474.293 91.5522 473.27 89.4592C471.651 86.1702 469.268 84.7012 465.487 84.7012C460.941 84.7012 458.066 86.9112 456.706 91.4352C456.124 93.3592 455.515 106.606 455.955 107.75C456.201 108.387 457.522 108.504 465.474 108.504V108.504Z" fill="white"/>
<path d="M403.834 89.4268C403.285 88.271 402.403 87.308 401.301 86.6634C400.199 86.0187 398.929 85.7223 397.657 85.8128C395.247 85.9976 392.951 86.9186 391.078 88.4518L389.434 89.7128V149.955L391.078 151.216C394.808 154.076 398.9 154.674 401.723 152.776C402.893 151.947 403.743 150.74 404.132 149.357C404.87 147.225 404.935 144.482 404.844 119.132C404.74 92.7158 404.689 91.1558 403.834 89.4268V89.4268Z" fill="white"/>
<path d="M518.176 62.2921C516.337 40.1791 514.873 33.0031 510.341 23.7861C504.319 11.5791 495.63 5.14412 483.249 3.72712C473.679 2.63512 437.653 1.08812 404.332 0.34712C346.627 -0.93988 251.755 1.54312 239.634 4.65012C234.225 5.98289 229.308 8.84298 225.467 12.8921C217.813 20.5361 213.242 31.5081 211.416 46.6921C207.233 81.3501 207.143 123.21 211.17 159.129C212.905 174.573 216.48 184.609 223.188 192.877C227.37 198.038 234.597 202.419 241.046 203.732C245.578 204.655 268.241 205.929 301.263 207.112C306.184 207.294 319.199 207.593 330.206 207.788C353.128 208.191 395.28 207.957 419.38 207.281C435.593 206.826 465.145 205.617 470.675 205.188C472.229 205.071 475.829 204.837 478.678 204.681C488.248 204.135 494.335 202.133 500.046 197.622C507.44 191.785 513.164 181.008 515.586 168.359C517.878 156.399 519.406 135.092 519.717 110.899C519.976 90.6841 519.626 79.7901 518.176 62.2661V62.2921ZM288.391 54.2841L277.668 54.4141L277.202 169.204L267.904 169.321C260.717 169.425 258.528 169.308 258.36 168.853C258.23 168.528 258.088 142.645 258.023 111.341L257.907 54.4141L236.966 54.1541V36.2141L298.854 36.4611L299.113 54.1411L288.391 54.2711V54.2841ZM354.138 120.077V169.438H337.199V164.238C337.199 160.325 337.057 159.038 336.591 159.038C336.254 159.038 334.726 160.325 333.185 161.898C329.831 165.317 325.868 168.06 322.475 169.334C315.456 171.973 308.8 170.426 305.964 165.525C303.361 161.04 303.322 160.026 303.322 113.46V70.6901H320.248L320.377 110.964C320.507 150.536 320.52 151.264 321.465 152.876C322.721 155.008 324.625 155.593 327.655 154.748C329.442 154.254 330.66 153.383 333.547 150.497L337.199 146.857V70.6901H354.138V120.051V120.077ZM420.209 162.392C418.72 165.733 415.391 168.996 412.659 169.802C405.549 171.908 399.839 170.192 393.247 163.965C391.201 162.028 389.297 160.468 389.012 160.468C388.663 160.468 388.481 161.976 388.481 164.953V169.438H371.543V36.2141H388.481V57.9501C388.481 69.8971 388.637 79.6861 388.831 79.6861C389.025 79.6861 390.812 78.1001 392.807 76.1761C397.391 71.7431 401.211 69.7931 406.067 69.4291C414.731 68.7661 419.898 73.2511 422.255 83.4691C422.993 86.6541 423.058 90.2941 423.058 119.843C423.058 155.827 423.058 155.983 420.196 162.392H420.209ZM491.887 142.632C491.799 145.804 491.466 148.964 490.89 152.083C488.533 160.845 482.265 167.059 473.2 169.607C461.001 173.039 447.559 167.423 442.198 156.646C439.194 150.601 439.077 149.392 439.077 119.843C439.077 95.7541 439.168 92.7901 439.932 89.5011C442.107 80.2061 447.495 74.1871 456.624 70.8461C459.266 69.8841 462.024 69.3771 464.783 69.3251C474.638 69.1171 484.402 74.4341 488.507 83.0921C491.266 88.9291 491.615 91.4381 491.887 107.896L492.133 122.664L456.016 122.911L455.886 132.83C455.692 146.831 456.637 151.134 460.406 153.669C463.565 155.814 468.435 155.645 471.076 153.318C473.563 151.134 474.262 148.781 474.508 141.917L474.728 135.898H492.172L491.887 142.632V142.632Z" fill="white"/>
</g>
<defs>
<clipPath id="clip0_725_19">
<rect width="518" height="208" fill="white"/>
</clipPath>
</defs>
</svg>
