<svg width="315" height="275" viewBox="0 0 315 275" fill="none" xmlns="http://www.w3.org/2000/svg">
<path opacity="0.5" d="M265.19 263.456C264.216 265.888 262.731 268.084 260.836 269.896C258.94 271.708 256.677 273.095 254.199 273.963C251.721 274.831 249.086 275.16 246.47 274.928C243.854 274.696 241.318 273.909 239.033 272.619L168.156 217.695L122.68 259.552C121.624 260.329 120.39 260.829 119.09 261.006C117.79 261.184 116.466 261.033 115.24 260.567L123.959 182.763L124.22 182.997L124.403 181.461C124.403 181.461 251.929 65.6786 257.124 60.7589C262.397 55.8392 260.648 54.772 260.648 54.772C260.961 48.7851 251.224 54.772 251.224 54.772L82.2421 163.162L11.8874 139.266C11.8874 139.266 1.07971 135.414 0.0615854 126.902C-1.00875 118.468 12.2268 113.887 12.2268 113.887L292.001 3.04998C292.001 3.04998 315 -7.15385 315 9.76578L265.19 263.456V263.456Z" fill="white"/>
</svg>
